{
	"asset":{
		"generator":"Khronos glTF Blender I/O v5.2.39",
		"version":"2.0"
	},
	"scene":0,
	"scenes":[
		{
			"name":"page_plane",
			"nodes":[
				23
			]
		}
	],
	"nodes":[
		{
			"name":"Bone.021",
			"rotation":[
				0,
				3.552713678800501e-15,
				0,
				1
			],
			"translation":[
				0,
				0.09123826026916504,
				0
			]
		},
		{
			"children":[
				0
			],
			"name":"Bone.020",
			"translation":[
				0,
				0.09123826026916504,
				0
			]
		},
		{
			"children":[
				1
			],
			"name":"Bone.019",
			"translation":[
				0,
				0.09123814105987549,
				0
			]
		},
		{
			"children":[
				2
			],
			"name":"Bone.018",
			"translation":[
				0,
				0.09123826026916504,
				0
			]
		},
		{
			"children":[
				3
			],
			"name":"Bone.017",
			"translation":[
				0,
				0.09123826026916504,
				0
			]
		},
		{
			"children":[
				4
			],
			"name":"Bone.016",
			"translation":[
				0,
				0.09123814105987549,
				0
			]
		},
		{
			"children":[
				5
			],
			"name":"Bone.015",
			"translation":[
				0,
				0.09123802185058594,
				0
			]
		},
		{
			"children":[
				6
			],
			"name":"Bone.014",
			"translation":[
				0,
				0.09123814105987549,
				0
			]
		},
		{
			"children":[
				7
			],
			"name":"Bone.013",
			"translation":[
				0,
				0.09123802185058594,
				0
			]
		},
		{
			"children":[
				8
			],
			"name":"Bone.012",
			"translation":[
				0,
				0.09123802185058594,
				0
			]
		},
		{
			"children":[
				9
			],
			"name":"Bone.011",
			"translation":[
				0,
				0.09123820066452026,
				0
			]
		},
		{
			"children":[
				10
			],
			"name":"Bone.010",
			"translation":[
				0,
				0.09123820066452026,
				0
			]
		},
		{
			"children":[
				11
			],
			"name":"Bone.009",
			"rotation":[
				0,
				-3.552713678800501e-15,
				0,
				1
			],
			"scale":[
				1,
				0.9999999403953552,
				1
			],
			"translation":[
				0,
				0.09123808145523071,
				0
			]
		},
		{
			"children":[
				12
			],
			"name":"Bone.008",
			"translation":[
				0,
				0.09123808145523071,
				0
			]
		},
		{
			"children":[
				13
			],
			"name":"Bone.007",
			"translation":[
				0,
				0.09123808145523071,
				0
			]
		},
		{
			"children":[
				14
			],
			"name":"Bone.006",
			"translation":[
				0,
				0.0912381112575531,
				0
			]
		},
		{
			"children":[
				15
			],
			"name":"Bone.005",
			"translation":[
				0,
				0.09123808145523071,
				0
			]
		},
		{
			"children":[
				16
			],
			"name":"Bone.004",
			"translation":[
				0,
				0.09123808145523071,
				0
			]
		},
		{
			"children":[
				17
			],
			"name":"Bone.003",
			"translation":[
				0,
				0.0912380963563919,
				0
			]
		},
		{
			"children":[
				18
			],
			"name":"Bone.002",
			"translation":[
				0,
				0.09123808890581131,
				0
			]
		},
		{
			"children":[
				19
			],
			"name":"Bone.001",
			"translation":[
				0,
				0.09123808890581131,
				0
			]
		},
		{
			"children":[
				20
			],
			"name":"Bone",
			"rotation":[
				-2.6692537957728746e-08,
				-2.6692537957728746e-08,
				-0.7071067690849304,
				0.7071067690849304
			]
		},
		{
			"mesh":0,
			"name":"page_plane",
			"skin":0
		},
		{
			"children":[
				22,
				21
			],
			"name":"page_plane_rig"
		}
	],
	"animations":[
		{
			"channels":[
				{
					"sampler":0,
					"target":{
						"node":21,
						"path":"translation"
					}
				},
				{
					"sampler":1,
					"target":{
						"node":21,
						"path":"rotation"
					}
				},
				{
					"sampler":2,
					"target":{
						"node":21,
						"path":"scale"
					}
				},
				{
					"sampler":3,
					"target":{
						"node":20,
						"path":"translation"
					}
				},
				{
					"sampler":4,
					"target":{
						"node":20,
						"path":"rotation"
					}
				},
				{
					"sampler":5,
					"target":{
						"node":20,
						"path":"scale"
					}
				},
				{
					"sampler":6,
					"target":{
						"node":19,
						"path":"translation"
					}
				},
				{
					"sampler":7,
					"target":{
						"node":19,
						"path":"rotation"
					}
				},
				{
					"sampler":8,
					"target":{
						"node":19,
						"path":"scale"
					}
				},
				{
					"sampler":9,
					"target":{
						"node":18,
						"path":"translation"
					}
				},
				{
					"sampler":10,
					"target":{
						"node":18,
						"path":"rotation"
					}
				},
				{
					"sampler":11,
					"target":{
						"node":18,
						"path":"scale"
					}
				},
				{
					"sampler":12,
					"target":{
						"node":17,
						"path":"translation"
					}
				},
				{
					"sampler":13,
					"target":{
						"node":17,
						"path":"rotation"
					}
				},
				{
					"sampler":14,
					"target":{
						"node":17,
						"path":"scale"
					}
				},
				{
					"sampler":15,
					"target":{
						"node":16,
						"path":"translation"
					}
				},
				{
					"sampler":16,
					"target":{
						"node":16,
						"path":"rotation"
					}
				},
				{
					"sampler":17,
					"target":{
						"node":16,
						"path":"scale"
					}
				},
				{
					"sampler":18,
					"target":{
						"node":15,
						"path":"translation"
					}
				},
				{
					"sampler":19,
					"target":{
						"node":15,
						"path":"rotation"
					}
				},
				{
					"sampler":20,
					"target":{
						"node":15,
						"path":"scale"
					}
				},
				{
					"sampler":21,
					"target":{
						"node":14,
						"path":"translation"
					}
				},
				{
					"sampler":22,
					"target":{
						"node":14,
						"path":"rotation"
					}
				},
				{
					"sampler":23,
					"target":{
						"node":14,
						"path":"scale"
					}
				},
				{
					"sampler":24,
					"target":{
						"node":13,
						"path":"translation"
					}
				},
				{
					"sampler":25,
					"target":{
						"node":13,
						"path":"rotation"
					}
				},
				{
					"sampler":26,
					"target":{
						"node":13,
						"path":"scale"
					}
				},
				{
					"sampler":27,
					"target":{
						"node":12,
						"path":"translation"
					}
				},
				{
					"sampler":28,
					"target":{
						"node":12,
						"path":"rotation"
					}
				},
				{
					"sampler":29,
					"target":{
						"node":12,
						"path":"scale"
					}
				},
				{
					"sampler":30,
					"target":{
						"node":11,
						"path":"translation"
					}
				},
				{
					"sampler":31,
					"target":{
						"node":11,
						"path":"rotation"
					}
				},
				{
					"sampler":32,
					"target":{
						"node":11,
						"path":"scale"
					}
				},
				{
					"sampler":33,
					"target":{
						"node":10,
						"path":"translation"
					}
				},
				{
					"sampler":34,
					"target":{
						"node":10,
						"path":"rotation"
					}
				},
				{
					"sampler":35,
					"target":{
						"node":10,
						"path":"scale"
					}
				},
				{
					"sampler":36,
					"target":{
						"node":9,
						"path":"translation"
					}
				},
				{
					"sampler":37,
					"target":{
						"node":9,
						"path":"rotation"
					}
				},
				{
					"sampler":38,
					"target":{
						"node":9,
						"path":"scale"
					}
				},
				{
					"sampler":39,
					"target":{
						"node":8,
						"path":"translation"
					}
				},
				{
					"sampler":40,
					"target":{
						"node":8,
						"path":"rotation"
					}
				},
				{
					"sampler":41,
					"target":{
						"node":8,
						"path":"scale"
					}
				},
				{
					"sampler":42,
					"target":{
						"node":7,
						"path":"translation"
					}
				},
				{
					"sampler":43,
					"target":{
						"node":7,
						"path":"rotation"
					}
				},
				{
					"sampler":44,
					"target":{
						"node":7,
						"path":"scale"
					}
				},
				{
					"sampler":45,
					"target":{
						"node":6,
						"path":"translation"
					}
				},
				{
					"sampler":46,
					"target":{
						"node":6,
						"path":"rotation"
					}
				},
				{
					"sampler":47,
					"target":{
						"node":6,
						"path":"scale"
					}
				},
				{
					"sampler":48,
					"target":{
						"node":5,
						"path":"translation"
					}
				},
				{
					"sampler":49,
					"target":{
						"node":5,
						"path":"rotation"
					}
				},
				{
					"sampler":50,
					"target":{
						"node":5,
						"path":"scale"
					}
				},
				{
					"sampler":51,
					"target":{
						"node":4,
						"path":"translation"
					}
				},
				{
					"sampler":52,
					"target":{
						"node":4,
						"path":"rotation"
					}
				},
				{
					"sampler":53,
					"target":{
						"node":4,
						"path":"scale"
					}
				},
				{
					"sampler":54,
					"target":{
						"node":3,
						"path":"translation"
					}
				},
				{
					"sampler":55,
					"target":{
						"node":3,
						"path":"rotation"
					}
				},
				{
					"sampler":56,
					"target":{
						"node":3,
						"path":"scale"
					}
				},
				{
					"sampler":57,
					"target":{
						"node":2,
						"path":"translation"
					}
				},
				{
					"sampler":58,
					"target":{
						"node":2,
						"path":"rotation"
					}
				},
				{
					"sampler":59,
					"target":{
						"node":2,
						"path":"scale"
					}
				},
				{
					"sampler":60,
					"target":{
						"node":1,
						"path":"translation"
					}
				},
				{
					"sampler":61,
					"target":{
						"node":1,
						"path":"rotation"
					}
				},
				{
					"sampler":62,
					"target":{
						"node":1,
						"path":"scale"
					}
				},
				{
					"sampler":63,
					"target":{
						"node":0,
						"path":"translation"
					}
				},
				{
					"sampler":64,
					"target":{
						"node":0,
						"path":"rotation"
					}
				},
				{
					"sampler":65,
					"target":{
						"node":0,
						"path":"scale"
					}
				}
			],
			"name":"turn_next_page",
			"samplers":[
				{
					"input":19,
					"interpolation":"STEP",
					"output":20
				},
				{
					"input":21,
					"interpolation":"LINEAR",
					"output":22
				},
				{
					"input":19,
					"interpolation":"STEP",
					"output":23
				},
				{
					"input":19,
					"interpolation":"LINEAR",
					"output":24
				},
				{
					"input":21,
					"interpolation":"LINEAR",
					"output":25
				},
				{
					"input":19,
					"interpolation":"STEP",
					"output":23
				},
				{
					"input":19,
					"interpolation":"LINEAR",
					"output":26
				},
				{
					"input":21,
					"interpolation":"LINEAR",
					"output":27
				},
				{
					"input":19,
					"interpolation":"LINEAR",
					"output":28
				},
				{
					"input":19,
					"interpolation":"LINEAR",
					"output":29
				},
				{
					"input":21,
					"interpolation":"LINEAR",
					"output":30
				},
				{
					"input":19,
					"interpolation":"LINEAR",
					"output":31
				},
				{
					"input":19,
					"interpolation":"LINEAR",
					"output":32
				},
				{
					"input":21,
					"interpolation":"LINEAR",
					"output":33
				},
				{
					"input":19,
					"interpolation":"LINEAR",
					"output":34
				},
				{
					"input":19,
					"interpolation":"LINEAR",
					"output":35
				},
				{
					"input":21,
					"interpolation":"LINEAR",
					"output":36
				},
				{
					"input":19,
					"interpolation":"LINEAR",
					"output":37
				},
				{
					"input":19,
					"interpolation":"LINEAR",
					"output":38
				},
				{
					"input":21,
					"interpolation":"LINEAR",
					"output":39
				},
				{
					"input":19,
					"interpolation":"LINEAR",
					"output":40
				},
				{
					"input":19,
					"interpolation":"LINEAR",
					"output":41
				},
				{
					"input":21,
					"interpolation":"LINEAR",
					"output":42
				},
				{
					"input":19,
					"interpolation":"LINEAR",
					"output":43
				},
				{
					"input":19,
					"interpolation":"LINEAR",
					"output":44
				},
				{
					"input":21,
					"interpolation":"LINEAR",
					"output":45
				},
				{
					"input":19,
					"interpolation":"LINEAR",
					"output":46
				},
				{
					"input":19,
					"interpolation":"LINEAR",
					"output":47
				},
				{
					"input":21,
					"interpolation":"LINEAR",
					"output":48
				},
				{
					"input":19,
					"interpolation":"LINEAR",
					"output":49
				},
				{
					"input":19,
					"interpolation":"LINEAR",
					"output":50
				},
				{
					"input":21,
					"interpolation":"LINEAR",
					"output":51
				},
				{
					"input":19,
					"interpolation":"LINEAR",
					"output":52
				},
				{
					"input":19,
					"interpolation":"LINEAR",
					"output":53
				},
				{
					"input":21,
					"interpolation":"LINEAR",
					"output":54
				},
				{
					"input":19,
					"interpolation":"LINEAR",
					"output":55
				},
				{
					"input":19,
					"interpolation":"LINEAR",
					"output":56
				},
				{
					"input":21,
					"interpolation":"LINEAR",
					"output":57
				},
				{
					"input":19,
					"interpolation":"LINEAR",
					"output":58
				},
				{
					"input":19,
					"interpolation":"LINEAR",
					"output":59
				},
				{
					"input":21,
					"interpolation":"LINEAR",
					"output":60
				},
				{
					"input":19,
					"interpolation":"LINEAR",
					"output":61
				},
				{
					"input":19,
					"interpolation":"LINEAR",
					"output":62
				},
				{
					"input":21,
					"interpolation":"LINEAR",
					"output":63
				},
				{
					"input":19,
					"interpolation":"LINEAR",
					"output":64
				},
				{
					"input":19,
					"interpolation":"LINEAR",
					"output":65
				},
				{
					"input":21,
					"interpolation":"LINEAR",
					"output":66
				},
				{
					"input":19,
					"interpolation":"LINEAR",
					"output":67
				},
				{
					"input":19,
					"interpolation":"LINEAR",
					"output":68
				},
				{
					"input":21,
					"interpolation":"LINEAR",
					"output":69
				},
				{
					"input":19,
					"interpolation":"LINEAR",
					"output":70
				},
				{
					"input":19,
					"interpolation":"LINEAR",
					"output":71
				},
				{
					"input":21,
					"interpolation":"LINEAR",
					"output":72
				},
				{
					"input":19,
					"interpolation":"LINEAR",
					"output":73
				},
				{
					"input":19,
					"interpolation":"LINEAR",
					"output":74
				},
				{
					"input":21,
					"interpolation":"LINEAR",
					"output":75
				},
				{
					"input":19,
					"interpolation":"LINEAR",
					"output":76
				},
				{
					"input":19,
					"interpolation":"LINEAR",
					"output":77
				},
				{
					"input":21,
					"interpolation":"LINEAR",
					"output":78
				},
				{
					"input":19,
					"interpolation":"LINEAR",
					"output":79
				},
				{
					"input":19,
					"interpolation":"LINEAR",
					"output":80
				},
				{
					"input":21,
					"interpolation":"LINEAR",
					"output":81
				},
				{
					"input":19,
					"interpolation":"LINEAR",
					"output":82
				},
				{
					"input":19,
					"interpolation":"LINEAR",
					"output":83
				},
				{
					"input":21,
					"interpolation":"LINEAR",
					"output":84
				},
				{
					"input":19,
					"interpolation":"LINEAR",
					"output":40
				}
			]
		}
	],
	"materials":[
		{
			"doubleSided":true,
			"name":"page_plane_left_material",
			"pbrMetallicRoughness":{
				"baseColorFactor":[
					0.800000011920929,
					0.800000011920929,
					0.800000011920929,
					1
				],
				"metallicFactor":0,
				"roughnessFactor":0.5
			}
		},
		{
			"doubleSided":true,
			"name":"page_plane_right_material",
			"pbrMetallicRoughness":{
				"baseColorFactor":[
					0.800000011920929,
					0.800000011920929,
					0.800000011920929,
					1
				],
				"metallicFactor":0,
				"roughnessFactor":0.5
			}
		},
		{
			"doubleSided":true,
			"name":"page_plane_edge_material",
			"pbrMetallicRoughness":{
				"baseColorFactor":[
					0.800000011920929,
					0.800000011920929,
					0.800000011920929,
					1
				],
				"metallicFactor":0,
				"roughnessFactor":0.5
			}
		}
	],
	"meshes":[
		{
			"name":"page_plane",
			"primitives":[
				{
					"attributes":{
						"POSITION":0,
						"NORMAL":1,
						"TEXCOORD_0":2,
						"JOINTS_0":3,
						"WEIGHTS_0":4
					},
					"indices":5,
					"material":0
				},
				{
					"attributes":{
						"POSITION":6,
						"NORMAL":7,
						"TEXCOORD_0":8,
						"JOINTS_0":9,
						"WEIGHTS_0":10
					},
					"indices":11,
					"material":1
				},
				{
					"attributes":{
						"POSITION":12,
						"NORMAL":13,
						"TEXCOORD_0":14,
						"JOINTS_0":15,
						"WEIGHTS_0":16
					},
					"indices":17,
					"material":2
				}
			]
		}
	],
	"skins":[
		{
			"inverseBindMatrices":18,
			"joints":[
				21,
				20,
				19,
				18,
				17,
				16,
				15,
				14,
				13,
				12,
				11,
				10,
				9,
				8,
				7,
				6,
				5,
				4,
				3,
				2,
				1,
				0
			],
			"name":"page_plane_rig"
		}
	],
	"accessors":[
		{
			"bufferView":0,
			"componentType":5126,
			"count":2704,
			"max":[
				1.9199999570846558,
				0.010000093840062618,
				1.0800000429153442
			],
			"min":[
				-4.796163127567497e-16,
				0.00999994296580553,
				-1.0800000429153442
			],
			"type":"VEC3"
		},
		{
			"bufferView":1,
			"componentType":5126,
			"count":2704,
			"type":"VEC3"
		},
		{
			"bufferView":2,
			"componentType":5126,
			"count":2704,
			"type":"VEC2"
		},
		{
			"bufferView":3,
			"componentType":5121,
			"count":2704,
			"type":"VEC4"
		},
		{
			"bufferView":4,
			"componentType":5126,
			"count":2704,
			"type":"VEC4"
		},
		{
			"bufferView":5,
			"componentType":5123,
			"count":15606,
			"type":"SCALAR"
		},
		{
			"bufferView":6,
			"componentType":5126,
			"count":2704,
			"max":[
				1.9199999570846558,
				-0.00999994296580553,
				1.0800000429153442
			],
			"min":[
				-4.796163127567497e-16,
				-0.010000093840062618,
				-1.0800000429153442
			],
			"type":"VEC3"
		},
		{
			"bufferView":7,
			"componentType":5126,
			"count":2704,
			"type":"VEC3"
		},
		{
			"bufferView":8,
			"componentType":5126,
			"count":2704,
			"type":"VEC2"
		},
		{
			"bufferView":9,
			"componentType":5121,
			"count":2704,
			"type":"VEC4"
		},
		{
			"bufferView":10,
			"componentType":5126,
			"count":2704,
			"type":"VEC4"
		},
		{
			"bufferView":11,
			"componentType":5123,
			"count":15606,
			"type":"SCALAR"
		},
		{
			"bufferView":12,
			"componentType":5126,
			"count":416,
			"max":[
				1.9199999570846558,
				0.010000093840062618,
				1.0800000429153442
			],
			"min":[
				-4.796163127567497e-16,
				-0.010000093840062618,
				-1.0800000429153442
			],
			"type":"VEC3"
		},
		{
			"bufferView":13,
			"componentType":5126,
			"count":416,
			"type":"VEC3"
		},
		{
			"bufferView":14,
			"componentType":5126,
			"count":416,
			"type":"VEC2"
		},
		{
			"bufferView":15,
			"componentType":5121,
			"count":416,
			"type":"VEC4"
		},
		{
			"bufferView":16,
			"componentType":5126,
			"count":416,
			"type":"VEC4"
		},
		{
			"bufferView":17,
			"componentType":5123,
			"count":1224,
			"type":"SCALAR"
		},
		{
			"bufferView":18,
			"componentType":5126,
			"count":22,
			"type":"MAT4"
		},
		{
			"bufferView":19,
			"componentType":5126,
			"count":2,
			"max":[
				0.625
			],
			"min":[
				0
			],
			"type":"SCALAR"
		},
		{
			"bufferView":20,
			"componentType":5126,
			"count":2,
			"type":"VEC3"
		},
		{
			"bufferView":21,
			"componentType":5126,
			"count":16,
			"max":[
				0.625
			],
			"min":[
				0
			],
			"type":"SCALAR"
		},
		{
			"bufferView":22,
			"componentType":5126,
			"count":16,
			"type":"VEC4"
		},
		{
			"bufferView":23,
			"componentType":5126,
			"count":2,
			"type":"VEC3"
		},
		{
			"bufferView":24,
			"componentType":5126,
			"count":2,
			"type":"VEC3"
		},
		{
			"bufferView":25,
			"componentType":5126,
			"count":16,
			"type":"VEC4"
		},
		{
			"bufferView":26,
			"componentType":5126,
			"count":2,
			"type":"VEC3"
		},
		{
			"bufferView":27,
			"componentType":5126,
			"count":16,
			"type":"VEC4"
		},
		{
			"bufferView":28,
			"componentType":5126,
			"count":2,
			"type":"VEC3"
		},
		{
			"bufferView":29,
			"componentType":5126,
			"count":2,
			"type":"VEC3"
		},
		{
			"bufferView":30,
			"componentType":5126,
			"count":16,
			"type":"VEC4"
		},
		{
			"bufferView":31,
			"componentType":5126,
			"count":2,
			"type":"VEC3"
		},
		{
			"bufferView":32,
			"componentType":5126,
			"count":2,
			"type":"VEC3"
		},
		{
			"bufferView":33,
			"componentType":5126,
			"count":16,
			"type":"VEC4"
		},
		{
			"bufferView":34,
			"componentType":5126,
			"count":2,
			"type":"VEC3"
		},
		{
			"bufferView":35,
			"componentType":5126,
			"count":2,
			"type":"VEC3"
		},
		{
			"bufferView":36,
			"componentType":5126,
			"count":16,
			"type":"VEC4"
		},
		{
			"bufferView":37,
			"componentType":5126,
			"count":2,
			"type":"VEC3"
		},
		{
			"bufferView":38,
			"componentType":5126,
			"count":2,
			"type":"VEC3"
		},
		{
			"bufferView":39,
			"componentType":5126,
			"count":16,
			"type":"VEC4"
		},
		{
			"bufferView":40,
			"componentType":5126,
			"count":2,
			"type":"VEC3"
		},
		{
			"bufferView":41,
			"componentType":5126,
			"count":2,
			"type":"VEC3"
		},
		{
			"bufferView":42,
			"componentType":5126,
			"count":16,
			"type":"VEC4"
		},
		{
			"bufferView":43,
			"componentType":5126,
			"count":2,
			"type":"VEC3"
		},
		{
			"bufferView":44,
			"componentType":5126,
			"count":2,
			"type":"VEC3"
		},
		{
			"bufferView":45,
			"componentType":5126,
			"count":16,
			"type":"VEC4"
		},
		{
			"bufferView":46,
			"componentType":5126,
			"count":2,
			"type":"VEC3"
		},
		{
			"bufferView":47,
			"componentType":5126,
			"count":2,
			"type":"VEC3"
		},
		{
			"bufferView":48,
			"componentType":5126,
			"count":16,
			"type":"VEC4"
		},
		{
			"bufferView":49,
			"componentType":5126,
			"count":2,
			"type":"VEC3"
		},
		{
			"bufferView":50,
			"componentType":5126,
			"count":2,
			"type":"VEC3"
		},
		{
			"bufferView":51,
			"componentType":5126,
			"count":16,
			"type":"VEC4"
		},
		{
			"bufferView":52,
			"componentType":5126,
			"count":2,
			"type":"VEC3"
		},
		{
			"bufferView":53,
			"componentType":5126,
			"count":2,
			"type":"VEC3"
		},
		{
			"bufferView":54,
			"componentType":5126,
			"count":16,
			"type":"VEC4"
		},
		{
			"bufferView":55,
			"componentType":5126,
			"count":2,
			"type":"VEC3"
		},
		{
			"bufferView":56,
			"componentType":5126,
			"count":2,
			"type":"VEC3"
		},
		{
			"bufferView":57,
			"componentType":5126,
			"count":16,
			"type":"VEC4"
		},
		{
			"bufferView":58,
			"componentType":5126,
			"count":2,
			"type":"VEC3"
		},
		{
			"bufferView":59,
			"componentType":5126,
			"count":2,
			"type":"VEC3"
		},
		{
			"bufferView":60,
			"componentType":5126,
			"count":16,
			"type":"VEC4"
		},
		{
			"bufferView":61,
			"componentType":5126,
			"count":2,
			"type":"VEC3"
		},
		{
			"bufferView":62,
			"componentType":5126,
			"count":2,
			"type":"VEC3"
		},
		{
			"bufferView":63,
			"componentType":5126,
			"count":16,
			"type":"VEC4"
		},
		{
			"bufferView":64,
			"componentType":5126,
			"count":2,
			"type":"VEC3"
		},
		{
			"bufferView":65,
			"componentType":5126,
			"count":2,
			"type":"VEC3"
		},
		{
			"bufferView":66,
			"componentType":5126,
			"count":16,
			"type":"VEC4"
		},
		{
			"bufferView":67,
			"componentType":5126,
			"count":2,
			"type":"VEC3"
		},
		{
			"bufferView":68,
			"componentType":5126,
			"count":2,
			"type":"VEC3"
		},
		{
			"bufferView":69,
			"componentType":5126,
			"count":16,
			"type":"VEC4"
		},
		{
			"bufferView":70,
			"componentType":5126,
			"count":2,
			"type":"VEC3"
		},
		{
			"bufferView":71,
			"componentType":5126,
			"count":2,
			"type":"VEC3"
		},
		{
			"bufferView":72,
			"componentType":5126,
			"count":16,
			"type":"VEC4"
		},
		{
			"bufferView":73,
			"componentType":5126,
			"count":2,
			"type":"VEC3"
		},
		{
			"bufferView":74,
			"componentType":5126,
			"count":2,
			"type":"VEC3"
		},
		{
			"bufferView":75,
			"componentType":5126,
			"count":16,
			"type":"VEC4"
		},
		{
			"bufferView":76,
			"componentType":5126,
			"count":2,
			"type":"VEC3"
		},
		{
			"bufferView":77,
			"componentType":5126,
			"count":2,
			"type":"VEC3"
		},
		{
			"bufferView":78,
			"componentType":5126,
			"count":16,
			"type":"VEC4"
		},
		{
			"bufferView":79,
			"componentType":5126,
			"count":2,
			"type":"VEC3"
		},
		{
			"bufferView":80,
			"componentType":5126,
			"count":2,
			"type":"VEC3"
		},
		{
			"bufferView":81,
			"componentType":5126,
			"count":16,
			"type":"VEC4"
		},
		{
			"bufferView":82,
			"componentType":5126,
			"count":2,
			"type":"VEC3"
		},
		{
			"bufferView":83,
			"componentType":5126,
			"count":2,
			"type":"VEC3"
		},
		{
			"bufferView":84,
			"componentType":5126,
			"count":16,
			"type":"VEC4"
		}
	],
	"bufferViews":[
		{
			"buffer":0,
			"byteLength":32448,
			"byteOffset":0,
			"target":34962
		},
		{
			"buffer":0,
			"byteLength":32448,
			"byteOffset":32448,
			"target":34962
		},
		{
			"buffer":0,
			"byteLength":21632,
			"byteOffset":64896,
			"target":34962
		},
		{
			"buffer":0,
			"byteLength":10816,
			"byteOffset":86528,
			"target":34962
		},
		{
			"buffer":0,
			"byteLength":43264,
			"byteOffset":97344,
			"target":34962
		},
		{
			"buffer":0,
			"byteLength":31212,
			"byteOffset":140608,
			"target":34963
		},
		{
			"buffer":0,
			"byteLength":32448,
			"byteOffset":171820,
			"target":34962
		},
		{
			"buffer":0,
			"byteLength":32448,
			"byteOffset":204268,
			"target":34962
		},
		{
			"buffer":0,
			"byteLength":21632,
			"byteOffset":236716,
			"target":34962
		},
		{
			"buffer":0,
			"byteLength":10816,
			"byteOffset":258348,
			"target":34962
		},
		{
			"buffer":0,
			"byteLength":43264,
			"byteOffset":269164,
			"target":34962
		},
		{
			"buffer":0,
			"byteLength":31212,
			"byteOffset":312428,
			"target":34963
		},
		{
			"buffer":0,
			"byteLength":4992,
			"byteOffset":343640,
			"target":34962
		},
		{
			"buffer":0,
			"byteLength":4992,
			"byteOffset":348632,
			"target":34962
		},
		{
			"buffer":0,
			"byteLength":3328,
			"byteOffset":353624,
			"target":34962
		},
		{
			"buffer":0,
			"byteLength":1664,
			"byteOffset":356952,
			"target":34962
		},
		{
			"buffer":0,
			"byteLength":6656,
			"byteOffset":358616,
			"target":34962
		},
		{
			"buffer":0,
			"byteLength":2448,
			"byteOffset":365272,
			"target":34963
		},
		{
			"buffer":0,
			"byteLength":1408,
			"byteOffset":367720
		},
		{
			"buffer":0,
			"byteLength":8,
			"byteOffset":369128
		},
		{
			"buffer":0,
			"byteLength":24,
			"byteOffset":369136
		},
		{
			"buffer":0,
			"byteLength":64,
			"byteOffset":369160
		},
		{
			"buffer":0,
			"byteLength":256,
			"byteOffset":369224
		},
		{
			"buffer":0,
			"byteLength":24,
			"byteOffset":369480
		},
		{
			"buffer":0,
			"byteLength":24,
			"byteOffset":369504
		},
		{
			"buffer":0,
			"byteLength":256,
			"byteOffset":369528
		},
		{
			"buffer":0,
			"byteLength":24,
			"byteOffset":369784
		},
		{
			"buffer":0,
			"byteLength":256,
			"byteOffset":369808
		},
		{
			"buffer":0,
			"byteLength":24,
			"byteOffset":370064
		},
		{
			"buffer":0,
			"byteLength":24,
			"byteOffset":370088
		},
		{
			"buffer":0,
			"byteLength":256,
			"byteOffset":370112
		},
		{
			"buffer":0,
			"byteLength":24,
			"byteOffset":370368
		},
		{
			"buffer":0,
			"byteLength":24,
			"byteOffset":370392
		},
		{
			"buffer":0,
			"byteLength":256,
			"byteOffset":370416
		},
		{
			"buffer":0,
			"byteLength":24,
			"byteOffset":370672
		},
		{
			"buffer":0,
			"byteLength":24,
			"byteOffset":370696
		},
		{
			"buffer":0,
			"byteLength":256,
			"byteOffset":370720
		},
		{
			"buffer":0,
			"byteLength":24,
			"byteOffset":370976
		},
		{
			"buffer":0,
			"byteLength":24,
			"byteOffset":371000
		},
		{
			"buffer":0,
			"byteLength":256,
			"byteOffset":371024
		},
		{
			"buffer":0,
			"byteLength":24,
			"byteOffset":371280
		},
		{
			"buffer":0,
			"byteLength":24,
			"byteOffset":371304
		},
		{
			"buffer":0,
			"byteLength":256,
			"byteOffset":371328
		},
		{
			"buffer":0,
			"byteLength":24,
			"byteOffset":371584
		},
		{
			"buffer":0,
			"byteLength":24,
			"byteOffset":371608
		},
		{
			"buffer":0,
			"byteLength":256,
			"byteOffset":371632
		},
		{
			"buffer":0,
			"byteLength":24,
			"byteOffset":371888
		},
		{
			"buffer":0,
			"byteLength":24,
			"byteOffset":371912
		},
		{
			"buffer":0,
			"byteLength":256,
			"byteOffset":371936
		},
		{
			"buffer":0,
			"byteLength":24,
			"byteOffset":372192
		},
		{
			"buffer":0,
			"byteLength":24,
			"byteOffset":372216
		},
		{
			"buffer":0,
			"byteLength":256,
			"byteOffset":372240
		},
		{
			"buffer":0,
			"byteLength":24,
			"byteOffset":372496
		},
		{
			"buffer":0,
			"byteLength":24,
			"byteOffset":372520
		},
		{
			"buffer":0,
			"byteLength":256,
			"byteOffset":372544
		},
		{
			"buffer":0,
			"byteLength":24,
			"byteOffset":372800
		},
		{
			"buffer":0,
			"byteLength":24,
			"byteOffset":372824
		},
		{
			"buffer":0,
			"byteLength":256,
			"byteOffset":372848
		},
		{
			"buffer":0,
			"byteLength":24,
			"byteOffset":373104
		},
		{
			"buffer":0,
			"byteLength":24,
			"byteOffset":373128
		},
		{
			"buffer":0,
			"byteLength":256,
			"byteOffset":373152
		},
		{
			"buffer":0,
			"byteLength":24,
			"byteOffset":373408
		},
		{
			"buffer":0,
			"byteLength":24,
			"byteOffset":373432
		},
		{
			"buffer":0,
			"byteLength":256,
			"byteOffset":373456
		},
		{
			"buffer":0,
			"byteLength":24,
			"byteOffset":373712
		},
		{
			"buffer":0,
			"byteLength":24,
			"byteOffset":373736
		},
		{
			"buffer":0,
			"byteLength":256,
			"byteOffset":373760
		},
		{
			"buffer":0,
			"byteLength":24,
			"byteOffset":374016
		},
		{
			"buffer":0,
			"byteLength":24,
			"byteOffset":374040
		},
		{
			"buffer":0,
			"byteLength":256,
			"byteOffset":374064
		},
		{
			"buffer":0,
			"byteLength":24,
			"byteOffset":374320
		},
		{
			"buffer":0,
			"byteLength":24,
			"byteOffset":374344
		},
		{
			"buffer":0,
			"byteLength":256,
			"byteOffset":374368
		},
		{
			"buffer":0,
			"byteLength":24,
			"byteOffset":374624
		},
		{
			"buffer":0,
			"byteLength":24,
			"byteOffset":374648
		},
		{
			"buffer":0,
			"byteLength":256,
			"byteOffset":374672
		},
		{
			"buffer":0,
			"byteLength":24,
			"byteOffset":374928
		},
		{
			"buffer":0,
			"byteLength":24,
			"byteOffset":374952
		},
		{
			"buffer":0,
			"byteLength":256,
			"byteOffset":374976
		},
		{
			"buffer":0,
			"byteLength":24,
			"byteOffset":375232
		},
		{
			"buffer":0,
			"byteLength":24,
			"byteOffset":375256
		},
		{
			"buffer":0,
			"byteLength":256,
			"byteOffset":375280
		},
		{
			"buffer":0,
			"byteLength":24,
			"byteOffset":375536
		},
		{
			"buffer":0,
			"byteLength":24,
			"byteOffset":375560
		},
		{
			"buffer":0,
			"byteLength":256,
			"byteOffset":375584
		}
	],
	"buffers":[
		{
			"byteLength":375840,
			"uri":"page_plane.bin"
		}
	]
}
